<svg width="40" height="40" viewBox="0 0 40 40" fill="none" xmlns="http://www.w3.org/2000/svg">
    <path d="M34.86 21.95C34.94 21.31 35 20.66 35 20C35 19.34 34.94 18.69 34.86 18.05L39.09 14.74C39.47 14.44 39.58 13.9 39.33 13.46L35.33 6.53C35.08 6.1 34.56 5.92 34.11 6.1L29.13 8.11C28.1 7.32 26.97 6.65 25.75 6.14L25 0.84C24.91 0.37 24.5 0 24 0H16C15.5 0 15.09 0.37 15.01 0.84L14.26 6.14C13.04 6.65 11.91 7.31 10.88 8.11L5.90002 6.1C5.45002 5.93 4.93002 6.1 4.68002 6.53L0.680021 13.46C0.430021 13.89 0.540021 14.43 0.920021 14.74L5.14002 18.05C5.06002 18.69 5.00002 19.34 5.00002 20C5.00002 20.66 5.06002 21.31 5.14002 21.95L0.920021 25.26C0.540021 25.56 0.430021 26.1 0.680021 26.54L4.68002 33.47C4.93002 33.9 5.45002 34.08 5.90002 33.9L10.88 31.89C11.91 32.68 13.04 33.35 14.26 33.86L15.01 39.16C15.09 39.63 15.5 40 16 40H24C24.5 40 24.91 39.63 24.99 39.16L25.74 33.86C26.96 33.35 28.09 32.69 29.12 31.89L34.1 33.9C34.55 34.07 35.07 33.9 35.32 33.47L39.32 26.54C39.57 26.11 39.46 25.57 39.08 25.26L34.86 21.95ZM20 27C16.13 27 13 23.87 13 20C13 16.13 16.13 13 20 13C23.87 13 27 16.13 27 20C27 23.87 23.87 27 20 27Z" fill="#92B0FF"/>
</svg>
