<svg width="238" height="58" viewBox="0 0 238 58" fill="none" xmlns="http://www.w3.org/2000/svg">
    <rect width="238" height="58" rx="29" fill="#92B0FF"/>
    <path d="M32.3576 22.1818C32.1871 20.7424 31.4959 19.625 30.2837 18.8295C29.0716 18.0341 27.5849 17.6364 25.8235 17.6364C24.5356 17.6364 23.4087 17.8447 22.4428 18.2614C21.4864 18.678 20.7383 19.2509 20.1985 19.9801C19.6682 20.7093 19.4031 21.5379 19.4031 22.4659C19.4031 23.2424 19.5877 23.91 19.957 24.4688C20.3358 25.018 20.8188 25.4773 21.4059 25.8466C21.993 26.2064 22.6085 26.5047 23.2525 26.7415C23.8964 26.9687 24.4883 27.1534 25.0281 27.2955L27.9826 28.0909C28.7402 28.2898 29.583 28.5644 30.511 28.9148C31.4485 29.2652 32.3434 29.7434 33.1957 30.3494C34.0574 30.946 34.7676 31.7131 35.3264 32.6506C35.8851 33.5881 36.1644 34.7386 36.1644 36.1023C36.1644 37.6742 35.7525 39.0947 34.9286 40.3636C34.1142 41.6326 32.921 42.6411 31.3491 43.3892C29.7866 44.1373 27.8879 44.5114 25.6531 44.5114C23.5697 44.5114 21.7657 44.1752 20.2411 43.5028C18.726 42.8305 17.5328 41.893 16.6616 40.6903C15.7998 39.4877 15.3121 38.0909 15.1985 36.5H18.8349C18.9296 37.5985 19.2989 38.5076 19.9428 39.2273C20.5962 39.9375 21.4201 40.4678 22.4144 40.8182C23.4182 41.1591 24.4978 41.3295 25.6531 41.3295C26.9978 41.3295 28.2051 41.1117 29.2752 40.6761C30.3453 40.2311 31.1928 39.6155 31.8178 38.8295C32.4428 38.0341 32.7553 37.1061 32.7553 36.0455C32.7553 35.0795 32.4854 34.2936 31.9457 33.6875C31.4059 33.0814 30.6957 32.589 29.815 32.2102C28.9343 31.8314 27.9826 31.5 26.9599 31.2159L23.3803 30.1932C21.1076 29.5398 19.3084 28.607 17.9826 27.3949C16.6568 26.1828 15.994 24.5966 15.994 22.6364C15.994 21.0076 16.4343 19.5871 17.315 18.375C18.2051 17.1534 19.3983 16.2064 20.8945 15.5341C22.4002 14.8523 24.0811 14.5114 25.9371 14.5114C27.8121 14.5114 29.4788 14.8475 30.9371 15.5199C32.3955 16.1828 33.5508 17.0919 34.4031 18.2472C35.2648 19.4025 35.7193 20.714 35.7667 22.1818H32.3576ZM44.854 30.875V44H41.5018V14.9091H44.854V25.5909H45.1381C45.6495 24.464 46.4165 23.5691 47.4393 22.9062C48.4715 22.2339 49.8446 21.8977 51.5586 21.8977C53.0453 21.8977 54.3474 22.196 55.4648 22.7926C56.5823 23.3797 57.4487 24.2841 58.0643 25.5057C58.6893 26.7178 59.0018 28.2614 59.0018 30.1364V44H55.6495V30.3636C55.6495 28.6307 55.1997 27.2907 54.3001 26.3438C53.4099 25.3873 52.1741 24.9091 50.5927 24.9091C49.4942 24.9091 48.5094 25.1411 47.6381 25.6051C46.7764 26.0691 46.0946 26.7462 45.5927 27.6364C45.1003 28.5265 44.854 29.6061 44.854 30.875ZM73.9982 44.4545C72.0285 44.4545 70.3003 43.9858 68.8136 43.0483C67.3363 42.1108 66.181 40.7992 65.3477 39.1136C64.5238 37.428 64.1119 35.4583 64.1119 33.2045C64.1119 30.9318 64.5238 28.9479 65.3477 27.2528C66.181 25.5578 67.3363 24.2415 68.8136 23.304C70.3003 22.3665 72.0285 21.8977 73.9982 21.8977C75.9679 21.8977 77.6914 22.3665 79.1687 23.304C80.6554 24.2415 81.8107 25.5578 82.6346 27.2528C83.4679 28.9479 83.8846 30.9318 83.8846 33.2045C83.8846 35.4583 83.4679 37.428 82.6346 39.1136C81.8107 40.7992 80.6554 42.1108 79.1687 43.0483C77.6914 43.9858 75.9679 44.4545 73.9982 44.4545ZM73.9982 41.4432C75.4944 41.4432 76.7255 41.0597 77.6914 40.2926C78.6573 39.5256 79.3723 38.517 79.8363 37.267C80.3003 36.017 80.5323 34.6629 80.5323 33.2045C80.5323 31.7462 80.3003 30.3873 79.8363 29.1278C79.3723 27.8684 78.6573 26.8504 77.6914 26.0739C76.7255 25.2973 75.4944 24.9091 73.9982 24.9091C72.502 24.9091 71.271 25.2973 70.305 26.0739C69.3391 26.8504 68.6242 27.8684 68.1602 29.1278C67.6961 30.3873 67.4641 31.7462 67.4641 33.2045C67.4641 34.6629 67.6961 36.017 68.1602 37.267C68.6242 38.517 69.3391 39.5256 70.305 40.2926C71.271 41.0597 72.502 41.4432 73.9982 41.4432ZM93.2028 44L86.555 22.1818H90.0778L94.7937 38.8864H95.021L99.68 22.1818H103.26L107.862 38.8295H108.089L112.805 22.1818H116.328L109.68 44H106.385L101.612 27.2386H101.271L96.4982 44H93.2028ZM132.01 44V22.1818H135.248V25.5909H135.532C135.987 24.4261 136.721 23.5218 137.734 22.8778C138.747 22.2244 139.964 21.8977 141.385 21.8977C142.824 21.8977 144.022 22.2244 144.978 22.8778C145.944 23.5218 146.697 24.4261 147.237 25.5909H147.464C148.023 24.464 148.861 23.5691 149.978 22.9062C151.096 22.2339 152.436 21.8977 153.998 21.8977C155.949 21.8977 157.545 22.5085 158.785 23.7301C160.026 24.9422 160.646 26.8314 160.646 29.3977V44H157.294V29.3977C157.294 27.7879 156.853 26.6373 155.973 25.946C155.092 25.2547 154.055 24.9091 152.862 24.9091C151.328 24.9091 150.139 25.3731 149.297 26.3011C148.454 27.2197 148.032 28.3845 148.032 29.7955V44H144.623V29.0568C144.623 27.8163 144.221 26.8172 143.416 26.0597C142.611 25.2926 141.574 24.9091 140.305 24.9091C139.434 24.9091 138.619 25.1411 137.862 25.6051C137.114 26.0691 136.508 26.7131 136.044 27.5369C135.589 28.3513 135.362 29.2936 135.362 30.3636V44H132.01ZM175.639 44.4545C173.669 44.4545 171.941 43.9858 170.454 43.0483C168.977 42.1108 167.822 40.7992 166.988 39.1136C166.164 37.428 165.752 35.4583 165.752 33.2045C165.752 30.9318 166.164 28.9479 166.988 27.2528C167.822 25.5578 168.977 24.2415 170.454 23.304C171.941 22.3665 173.669 21.8977 175.639 21.8977C177.609 21.8977 179.332 22.3665 180.809 23.304C182.296 24.2415 183.451 25.5578 184.275 27.2528C185.109 28.9479 185.525 30.9318 185.525 33.2045C185.525 35.4583 185.109 37.428 184.275 39.1136C183.451 40.7992 182.296 42.1108 180.809 43.0483C179.332 43.9858 177.609 44.4545 175.639 44.4545ZM175.639 41.4432C177.135 41.4432 178.366 41.0597 179.332 40.2926C180.298 39.5256 181.013 38.517 181.477 37.267C181.941 36.017 182.173 34.6629 182.173 33.2045C182.173 31.7462 181.941 30.3873 181.477 29.1278C181.013 27.8684 180.298 26.8504 179.332 26.0739C178.366 25.2973 177.135 24.9091 175.639 24.9091C174.143 24.9091 172.912 25.2973 171.946 26.0739C170.98 26.8504 170.265 27.8684 169.801 29.1278C169.337 30.3873 169.105 31.7462 169.105 33.2045C169.105 34.6629 169.337 36.017 169.801 37.267C170.265 38.517 170.98 39.5256 171.946 40.2926C172.912 41.0597 174.143 41.4432 175.639 41.4432ZM190.642 44V22.1818H193.881V25.4773H194.108C194.506 24.3977 195.226 23.5218 196.267 22.8494C197.309 22.1771 198.483 21.8409 199.79 21.8409C200.036 21.8409 200.344 21.8456 200.713 21.8551C201.083 21.8646 201.362 21.8788 201.551 21.8977V25.3068C201.438 25.2784 201.177 25.2358 200.77 25.179C200.373 25.1127 199.951 25.0795 199.506 25.0795C198.445 25.0795 197.498 25.3021 196.665 25.7472C195.841 26.1828 195.188 26.7888 194.705 27.5653C194.231 28.3324 193.995 29.2083 193.995 30.1932V44H190.642ZM214.009 44.4545C211.907 44.4545 210.093 43.9905 208.569 43.0625C207.053 42.125 205.884 40.8182 205.06 39.142C204.246 37.4564 203.838 35.4962 203.838 33.2614C203.838 31.0265 204.246 29.0568 205.06 27.3523C205.884 25.6383 207.03 24.303 208.498 23.3466C209.975 22.3807 211.698 21.8977 213.668 21.8977C214.804 21.8977 215.926 22.0871 217.034 22.4659C218.142 22.8447 219.151 23.4602 220.06 24.3125C220.969 25.1553 221.694 26.2727 222.233 27.6648C222.773 29.0568 223.043 30.7708 223.043 32.8068V34.2273H206.225V31.3295H219.634C219.634 30.0985 219.388 29 218.895 28.0341C218.412 27.0682 217.721 26.3059 216.821 25.7472C215.931 25.1884 214.88 24.9091 213.668 24.9091C212.333 24.9091 211.177 25.2405 210.202 25.9034C209.236 26.5568 208.493 27.4091 207.972 28.4602C207.451 29.5114 207.191 30.6383 207.191 31.8409V33.7727C207.191 35.4205 207.475 36.8172 208.043 37.9631C208.621 39.0994 209.421 39.9659 210.444 40.5625C211.466 41.1496 212.655 41.4432 214.009 41.4432C214.89 41.4432 215.685 41.3201 216.395 41.0739C217.115 40.8182 217.735 40.4394 218.256 39.9375C218.777 39.4261 219.179 38.7917 219.463 38.0341L222.702 38.9432C222.361 40.0417 221.788 41.0076 220.983 41.8409C220.178 42.6648 219.184 43.3087 218 43.7727C216.817 44.2273 215.486 44.4545 214.009 44.4545Z" fill="white"/>
</svg>
